<?xml version="1.0" standalone="no"?>
<!DOCTYPE svg PUBLIC "-//W3C//DTD SVG 20010904//EN"
 "http://www.w3.org/TR/2001/REC-SVG-20010904/DTD/svg10.dtd">
<svg version="1.0" xmlns="http://www.w3.org/2000/svg"
 width="320.000000pt" height="320.000000pt" viewBox="0 0 320.000000 320.000000"
 preserveAspectRatio="xMidYMid meet">
<metadata>
Created by potrace 1.14, written by Peter Selinger 2001-2017
</metadata>
<g transform="translate(0.000000,320.000000) scale(0.100000,-0.100000)"
fill="#000000" stroke="none">
<path d="M578 3118 l-3 -83 -157 -5 -158 -5 -32 -33 -33 -32 -3 -175 -4 -175
-94 0 -94 0 0 -55 0 -54 93 -3 92 -3 5 -170 c7 -242 10 -245 240 -245 l150 0
0 -412 0 -412 -267 -271 c-165 -166 -277 -271 -290 -273 -20 -3 -23 -9 -23
-48 0 -37 3 -44 20 -44 12 0 118 -99 290 -271 261 -262 270 -273 270 -310 l0
-39 80 0 80 0 0 32 c0 28 30 62 268 302 147 149 272 274 277 278 6 4 184 8
397 8 l388 0 5 -22 c2 -13 6 -93 7 -178 3 -137 5 -158 23 -182 11 -15 27 -31
35 -35 8 -4 87 -10 175 -13 l160 -5 3 -92 3 -93 74 0 74 0 3 93 3 92 162 3
163 2 35 36 35 35 0 164 c0 90 3 170 6 179 5 13 22 16 85 16 l79 0 0 45 0 44
-82 3 -83 3 -3 174 c-2 169 -3 176 -27 207 -20 25 -35 34 -71 40 -36 5 -44 10
-39 22 3 9 13 39 21 66 9 28 19 60 24 71 4 11 22 67 40 125 18 58 36 113 41
123 5 9 12 37 15 61 8 55 -16 107 -65 144 -20 15 -40 30 -46 35 -5 4 -66 48
-135 97 -69 50 -126 94 -128 99 -4 11 509 521 525 521 9 0 13 16 13 55 0 37
-4 55 -12 55 -7 0 -134 120 -281 267 -190 189 -270 275 -274 295 -5 28 -6 28
-78 28 -72 0 -73 0 -78 -28 -4 -21 -83 -105 -274 -295 l-268 -267 -397 0 -398
0 0 166 c0 246 -8 254 -239 254 -93 0 -141 4 -149 12 -7 7 -12 42 -12 85 l0
73 -80 0 -79 0 -3 -82z m1610 -866 c136 -136 251 -255 254 -264 5 -13 -30 -43
-157 -135 -165 -119 -215 -170 -215 -220 0 -21 37 -149 60 -208 16 -41 70
-221 76 -250 5 -29 3 -31 -39 -42 -74 -20 -81 -39 -87 -243 l-5 -175 -392 -3
-391 -2 -274 272 -273 273 -3 390 c-1 215 0 400 3 413 5 22 8 22 156 22 159 0
178 4 216 49 22 25 23 34 23 199 l0 172 400 0 400 0 248 -248z m404 -360 c14
-9 68 -47 120 -85 51 -37 120 -86 153 -110 33 -24 61 -52 63 -63 3 -22 -122
-410 -139 -430 -16 -20 -451 -20 -467 -1 -6 7 -31 73 -55 147 -83 254 -91 282
-81 296 12 19 355 264 368 264 6 0 23 -8 38 -18z"/>
</g>
</svg>
